<?xml version="1.0" standalone="no"?>
<!DOCTYPE svg PUBLIC "-//W3C//DTD SVG 20010904//EN"
 "http://www.w3.org/TR/2001/REC-SVG-20010904/DTD/svg10.dtd">
<svg version="1.0" xmlns="http://www.w3.org/2000/svg"
 width="600.000000pt" height="600.000000pt" viewBox="0 0 600.000000 600.000000"
 preserveAspectRatio="xMidYMid meet">
<metadata>
Created by potrace 1.14, written by Peter Selinger 2001-2017
</metadata>
<g transform="translate(0.000000,600.000000) scale(0.100000,-0.100000)"
fill="#000000" stroke="none">
<path d="M1725 5233 c-339 -41 -574 -150 -794 -366 -208 -204 -340 -464 -398
-787 -24 -136 -24 -453 0 -573 65 -320 218 -595 483 -862 168 -170 302 -275
714 -562 135 -94 295 -209 355 -256 368 -287 784 -705 885 -888 l27 -50 31 53
c49 87 145 203 306 367 291 296 549 511 911 761 375 258 537 383 689 529 282
274 443 541 518 861 26 110 36 407 18 548 -43 346 -177 630 -405 857 -189 188
-396 297 -670 351 -124 25 -405 25 -530 1 -197 -39 -359 -102 -501 -197 -97
-65 -252 -220 -318 -317 l-49 -72 -48 70 c-77 111 -128 167 -226 249 -133 110
-302 196 -478 241 -152 39 -388 59 -520 42z m2518 -157 c91 -18 181 -48 271
-91 72 -35 164 -91 135 -82 -9 3 -22 1 -29 -3 -8 -5 -23 -4 -34 2 -25 14 -339
11 -441 -3 -158 -22 -334 -82 -482 -165 -73 -41 -231 -157 -251 -186 -14 -19
-38 -26 -26 -6 4 7 3 8 -5 4 -6 -4 -9 -12 -6 -17 7 -11 -63 -85 -77 -81 -5 1
-7 -1 -5 -5 3 -5 -8 -26 -24 -47 -16 -22 -29 -35 -29 -30 0 6 5 15 11 21 8 8
2 10 -19 10 -17 -1 -28 -5 -26 -9 3 -5 -4 -8 -15 -8 -12 0 -21 -6 -21 -14 0
-17 -49 -31 -62 -18 -13 13 13 111 53 207 103 248 304 420 584 500 162 46 330
53 498 21z m-2033 -84 c63 -16 135 -39 160 -50 l45 -19 -66 -1 c-36 0 -101 -9
-145 -21 -43 -11 -108 -25 -144 -31 -152 -26 -346 -94 -480 -167 -183 -101
-377 -265 -495 -418 -33 -43 -68 -85 -77 -94 -27 -26 -47 -41 -54 -41 -4 0
-18 -12 -31 -26 -13 -14 -27 -24 -30 -20 -3 3 -23 -10 -45 -30 -21 -19 -43
-32 -48 -29 -6 4 -10 1 -10 -5 0 -21 -30 -44 -42 -32 -15 15 5 155 38 270 102
353 419 633 814 721 52 11 104 23 115 25 11 3 101 3 200 2 162 -3 191 -6 295
-34z m3077 -1169 c3 4 14 2 24 -4 14 -7 19 -6 19 3 0 9 3 9 10 -2 17 -27 11
-238 -9 -335 -76 -358 -301 -658 -730 -974 -46 -34 -203 -141 -350 -238 -296
-196 -483 -334 -602 -443 -9 -8 -32 -30 -52 -48 -20 -18 -41 -30 -47 -27 -6 4
-9 3 -8 -2 4 -11 -113 -133 -123 -128 -4 3 -10 0 -12 -5 -3 -6 -4 -5 -3 2 2 7
9 13 16 13 7 0 15 6 18 14 3 9 0 11 -8 6 -9 -5 -11 -4 -6 4 4 6 12 9 17 6 9
-6 58 43 59 59 0 6 -15 -3 -32 -19 -18 -16 -8 -4 22 27 44 44 58 53 70 45 12
-9 13 -9 3 3 -18 20 -16 28 7 35 11 4 18 10 16 14 -8 12 49 63 59 54 4 -5 5
-3 2 3 -6 11 68 86 198 201 75 65 106 90 400 313 105 79 226 173 270 209 346
282 558 548 655 826 36 103 70 257 70 319 0 63 9 89 26 75 8 -7 17 -9 21 -6z"/>
<path d="M978 4192 c4 -10 7 -12 10 -4 2 7 9 9 15 5 7 -3 8 -2 4 2 -14 16 -36
14 -29 -3z"/>
</g>
</svg>
